<?xml version="1.0" standalone="no"?><!DOCTYPE svg PUBLIC "-//W3C//DTD SVG 1.1//EN" "http://www.w3.org/Graphics/SVG/1.1/DTD/svg11.dtd"><svg t="1618365719666" class="icon" viewBox="0 0 1024 1024" version="1.1" xmlns="http://www.w3.org/2000/svg" p-id="3521" xmlns:xlink="http://www.w3.org/1999/xlink" width="200" height="200"><defs><style type="text/css"></style></defs><path d="M681.147 109.14C627.623 77.181 567.385 64.386 507.11 64.386c-60.276 0-120.513 19.162-174.038 44.752-153.946 89.506-200.76 274.742-113.76 421.715l287.798 485.67 287.8-485.67c87-146.973 40.105-332.21-113.762-421.715zM516.812 229.085c13.989 2.164 24.742 3.234 32.341 3.234h72.77c11.805 0 25.308-1.072 40.428-3.234-3.233 15.1-4.366 26.419-3.233 33.96v79.235c0 9.703 1.05 22.114 3.233 37.193H625.16c1.05-7.539 1.617-12.937 1.617-16.17h-64.684v87.321c-1.131 8.632 3.72 13.483 14.553 14.554 22.64 2.163 41.48 1.091 56.6-3.234 11.804-4.305 17.788-19.93 17.788-46.895 11.804 12.937 24.257 21.022 37.192 24.257-6.468 26.965-14.553 43.661-24.256 50.13-6.469 3.233-23.207 5.942-50.13 8.086-22.64 1.091-39.943 0.546-51.747-1.618-22.64-4.305-33.474-14.553-32.342-30.724V355.22c-1.13-6.469-2.181-14.553-3.233-24.257 12.937 2.163 23.124 3.234 30.724 3.234h69.535v-72.77h-69.535c-21.588 0-35.09 0.547-40.428 1.618v-33.959z m163.326 337.97c-81.988 0-140.202-2.163-174.646-6.468-35.575-3.233-60.964-10.248-76.002-21.022-28.056-20.477-45.844-39.881-53.363-58.215-7.6 35.576-18.354 67.372-32.342 95.408-8.652-10.794-19.404-19.952-32.341-27.49 26.924-29.108 41.478-80.31 43.66-153.623 29.109 2.163 43.662 5.397 43.662 9.702 0 1.092-0.566 2.163-1.618 3.234-5.416 8.632-9.702 21.022-12.937 37.192 9.702 16.171 19.405 30.2 29.108 42.044V369.772h-29.108c-19.404 0-38.325 1.091-56.598 3.233V337.43c15.04 1.092 33.959 2.164 56.598 3.234h27.49v-50.13c-30.238 0-54.98 1.092-74.384 3.234v-33.959c20.456 1.092 45.278 1.617 74.385 1.617 1.05-29.107-0.566-49.583-4.851-61.449 30.158 2.163 44.711 4.851 43.66 8.086 0 1.092-0.565 3.234-1.617 6.469-3.233 5.397-4.85 10.794-4.85 16.17v29.108c29.107 0 48.996-0.526 59.83-1.617v35.575c-16.17-2.143-36.141-3.234-59.83-3.234v50.13h14.552c13.988 0 31.776-1.072 53.364-3.234v35.575c-18.353-2.143-36.141-3.233-53.364-3.233H445.66v48.512h12.937c27.976 0 46.33-0.525 54.981-1.618v37.193c-18.352-2.142-36.708-3.234-54.98-3.234h-12.938v61.45c40.913 20.496 126.617 24.256 257.117 11.32-14.068 14.008-21.587 28.561-22.638 43.662z" fill="#2A7AFF" p-id="3522"></path></svg>